<svg width="1440" height="859" viewBox="0 0 1440 859" fill="none" xmlns="http://www.w3.org/2000/svg">
<g clip-path="url(#clip0_196_265)">
<line x1="-47" y1="70.4999" x2="1544" y2="70.4999" stroke="#66FFE7" stroke-opacity="0.05"/>
<line x1="-47" y1="140.5" x2="1544" y2="140.5" stroke="#66FFE7" stroke-opacity="0.05"/>
<line x1="-47" y1="210.5" x2="1544" y2="210.5" stroke="#66FFE7" stroke-opacity="0.05"/>
<line x1="-47" y1="280.5" x2="1544" y2="280.5" stroke="#66FFE7" stroke-opacity="0.05"/>
<line x1="-47" y1="350.5" x2="1544" y2="350.5" stroke="#66FFE7" stroke-opacity="0.05"/>
<line x1="-47" y1="420.5" x2="1544" y2="420.5" stroke="#66FFE7" stroke-opacity="0.05"/>
<line x1="-47" y1="490.5" x2="1544" y2="490.5" stroke="#66FFE7" stroke-opacity="0.05"/>
<line x1="-47" y1="560.5" x2="1544" y2="560.5" stroke="#66FFE7" stroke-opacity="0.05"/>
<line x1="-47" y1="630.5" x2="1544" y2="630.5" stroke="#66FFE7" stroke-opacity="0.05"/>
<line x1="-47" y1="700.5" x2="1544" y2="700.5" stroke="#66FFE7" stroke-opacity="0.05"/>
<line x1="-47" y1="770.5" x2="1544" y2="770.5" stroke="#66FFE7" stroke-opacity="0.05"/>
<line x1="-47" y1="840.5" x2="1544" y2="840.5" stroke="#66FFE7" stroke-opacity="0.05"/>
<line x1="70.5" y1="869" x2="70.5" y2="-13" stroke="#66FFE7" stroke-opacity="0.05"/>
<line x1="140.5" y1="870" x2="140.5" y2="-12" stroke="#66FFE7" stroke-opacity="0.05"/>
<line x1="210.5" y1="870" x2="210.5" y2="-12" stroke="#66FFE7" stroke-opacity="0.05"/>
<line x1="280.5" y1="870" x2="280.5" y2="-12" stroke="#66FFE7" stroke-opacity="0.05"/>
<line x1="350.5" y1="870" x2="350.5" y2="-12" stroke="#66FFE7" stroke-opacity="0.05"/>
<line x1="420.5" y1="870" x2="420.5" y2="-12" stroke="#66FFE7" stroke-opacity="0.05"/>
<line x1="490.5" y1="870" x2="490.5" y2="-12" stroke="#66FFE7" stroke-opacity="0.05"/>
<line x1="560.5" y1="870" x2="560.5" y2="-12" stroke="#66FFE7" stroke-opacity="0.05"/>
<line x1="630.5" y1="870" x2="630.5" y2="-12" stroke="#66FFE7" stroke-opacity="0.05"/>
<line x1="700.5" y1="870" x2="700.5" y2="-12" stroke="#66FFE7" stroke-opacity="0.05"/>
<line x1="770.5" y1="870" x2="770.5" y2="-12" stroke="#66FFE7" stroke-opacity="0.05"/>
<line x1="840.5" y1="870" x2="840.5" y2="-12" stroke="#66FFE7" stroke-opacity="0.05"/>
<line x1="910.5" y1="870" x2="910.5" y2="-12" stroke="#66FFE7" stroke-opacity="0.05"/>
<line x1="980.5" y1="870" x2="980.5" y2="-12" stroke="#66FFE7" stroke-opacity="0.05"/>
<line x1="1050.5" y1="870" x2="1050.5" y2="-12" stroke="#66FFE7" stroke-opacity="0.05"/>
<line x1="1120.5" y1="870" x2="1120.5" y2="-12" stroke="#66FFE7" stroke-opacity="0.05"/>
<line x1="1190.5" y1="870" x2="1190.5" y2="-12" stroke="#66FFE7" stroke-opacity="0.05"/>
<line x1="1260.5" y1="870" x2="1260.5" y2="-12" stroke="#66FFE7" stroke-opacity="0.05"/>
<line x1="1330.5" y1="870" x2="1330.5" y2="-12" stroke="#66FFE7" stroke-opacity="0.05"/>
<line x1="1400.5" y1="870" x2="1400.5" y2="-12" stroke="#66FFE7" stroke-opacity="0.05"/>
</g>
<defs>
<clipPath id="clip0_196_265">
<rect width="1591" height="861" fill="white" transform="translate(-47 -2)"/>
</clipPath>
</defs>
</svg>
