<svg width="1433" height="859" viewBox="0 0 1433 859" fill="none" xmlns="http://www.w3.org/2000/svg">
<g clip-path="url(#clip0_197_266)">
<g opacity="0.2" clip-path="url(#clip1_197_266)">
<g opacity="0.7">
<path d="M1389.79 211.894C1388.09 212.297 1387.03 214.003 1387.44 215.705C1387.84 217.406 1389.55 218.46 1391.25 218.057C1392.95 217.655 1394 215.949 1393.6 214.247C1393.2 212.545 1391.49 211.492 1389.79 211.894Z" fill="white"/>
<path d="M1351.27 342.469C1349.56 342.871 1348.51 344.577 1348.91 346.279C1349.31 347.981 1351.02 349.034 1352.72 348.632C1354.42 348.229 1355.48 346.523 1355.08 344.821C1354.67 343.12 1352.97 342.066 1351.27 342.469Z" fill="white"/>
<path d="M1328.69 467.103C1326.98 467.505 1325.93 469.211 1326.33 470.913C1326.74 472.615 1328.44 473.668 1330.14 473.266C1331.85 472.863 1332.9 471.157 1332.5 469.455C1332.09 467.754 1330.39 466.7 1328.69 467.103Z" fill="white"/>
<path opacity="0.3" d="M1385.78 364.664C1383.51 365.2 1382.1 367.475 1382.64 369.745C1383.17 372.015 1385.45 373.42 1387.72 372.883C1389.99 372.346 1391.39 370.071 1390.86 367.802C1390.32 365.532 1388.05 364.127 1385.78 364.664Z" fill="white"/>
<path d="M1229.32 754.557C1228.18 754.825 1227.48 755.961 1227.75 757.095C1228.02 758.229 1229.15 758.931 1230.29 758.663C1231.42 758.395 1232.12 757.258 1231.86 756.124C1231.59 754.99 1230.45 754.289 1229.32 754.557Z" fill="white"/>
<path opacity="0.11" d="M1286.34 858.19C1285.21 858.458 1284.5 859.594 1284.77 860.728C1285.04 861.862 1286.18 862.564 1287.31 862.296C1288.44 862.028 1289.15 860.891 1288.88 859.757C1288.61 858.623 1287.47 857.922 1286.34 858.19Z" fill="white"/>
<path opacity="0.11" d="M1363.49 790.059C1362.35 790.327 1361.65 791.464 1361.92 792.598C1362.19 793.732 1363.32 794.433 1364.46 794.165C1365.59 793.897 1366.29 792.761 1366.03 791.627C1365.76 790.493 1364.62 789.791 1363.49 790.059Z" fill="white"/>
<path opacity="0.11" d="M1266.56 682.841C1265.43 683.109 1264.73 684.245 1265 685.379C1265.27 686.513 1266.4 687.215 1267.54 686.947C1268.67 686.679 1269.37 685.542 1269.1 684.408C1268.84 683.274 1267.7 682.572 1266.56 682.841Z" fill="white"/>
<path opacity="0.11" d="M519.787 790.027C518.653 790.295 517.951 791.432 518.219 792.566C518.488 793.7 519.624 794.402 520.758 794.134C521.892 793.865 522.594 792.729 522.326 791.595C522.057 790.461 520.921 789.759 519.787 790.027Z" fill="white"/>
<path opacity="0.3" d="M1146.96 828.252C1145.83 828.52 1145.12 829.656 1145.39 830.79C1145.66 831.924 1146.8 832.626 1147.93 832.358C1149.06 832.09 1149.77 830.953 1149.5 829.819C1149.23 828.685 1148.09 827.983 1146.96 828.252Z" fill="white"/>
<path d="M795.748 828.876C794.615 829.144 793.913 830.281 794.181 831.415C794.449 832.549 795.586 833.251 796.719 832.982C797.853 832.714 798.555 831.578 798.287 830.444C798.019 829.31 796.882 828.608 795.748 828.876Z" fill="white"/>
<path opacity="0.3" d="M939.536 794.877C938.402 795.145 937.7 796.281 937.968 797.415C938.236 798.549 939.373 799.251 940.507 798.983C941.641 798.715 942.342 797.578 942.074 796.444C941.806 795.31 940.67 794.608 939.536 794.877Z" fill="white"/>
<path opacity="0.3" d="M751.586 798.103C750.452 798.371 749.75 799.508 750.018 800.642C750.286 801.776 751.423 802.478 752.557 802.21C753.691 801.941 754.392 800.805 754.124 799.671C753.856 798.537 752.72 797.835 751.586 798.103Z" fill="white"/>
<path opacity="0.3" d="M995.281 718.797C994.147 719.065 993.445 720.202 993.714 721.336C993.982 722.47 995.118 723.172 996.252 722.904C997.386 722.635 998.088 721.499 997.82 720.365C997.552 719.231 996.415 718.529 995.281 718.797Z" fill="white"/>
<path opacity="0.3" d="M1087.38 842.327C1086.25 842.595 1085.55 843.731 1085.82 844.865C1086.08 845.999 1087.22 846.701 1088.36 846.433C1089.49 846.165 1090.19 845.028 1089.92 843.894C1089.65 842.76 1088.52 842.058 1087.38 842.327Z" fill="white"/>
<path d="M363.221 820.524C361.519 820.927 360.466 822.632 360.868 824.334C361.271 826.036 362.977 827.089 364.678 826.687C366.38 826.285 367.434 824.579 367.031 822.877C366.629 821.175 364.923 820.122 363.221 820.524Z" fill="white"/>
<path d="M1012.93 660.399C1011.23 660.801 1010.17 662.507 1010.58 664.209C1010.98 665.911 1012.68 666.964 1014.39 666.562C1016.09 666.159 1017.14 664.454 1016.74 662.752C1016.34 661.05 1014.63 659.997 1012.93 660.399Z" fill="white"/>
<path d="M1297.27 643.041C1295.57 643.443 1294.52 645.149 1294.92 646.851C1295.32 648.553 1297.03 649.606 1298.73 649.204C1300.43 648.801 1301.49 647.095 1301.08 645.394C1300.68 643.692 1298.97 642.638 1297.27 643.041Z" fill="white"/>
<path d="M1351.63 716.948C1349.92 717.35 1348.87 719.056 1349.27 720.758C1349.68 722.46 1351.38 723.513 1353.08 723.111C1354.78 722.708 1355.84 721.002 1355.44 719.301C1355.03 717.599 1353.33 716.545 1351.63 716.948Z" fill="white"/>
<path d="M682.843 768.809C681.141 769.211 680.088 770.917 680.49 772.619C680.893 774.321 682.598 775.374 684.3 774.972C686.002 774.57 687.055 772.864 686.653 771.162C686.25 769.46 684.545 768.407 682.843 768.809Z" fill="white"/>
<path d="M144.327 802.878C142.625 803.28 141.572 804.986 141.974 806.688C142.377 808.39 144.082 809.443 145.784 809.041C147.486 808.638 148.539 806.932 148.137 805.231C147.735 803.529 146.029 802.475 144.327 802.878Z" fill="white"/>
<path opacity="0.3" d="M1077.71 718.829C1075.44 719.366 1074.03 721.641 1074.57 723.91C1075.11 726.18 1077.38 727.585 1079.65 727.048C1081.92 726.512 1083.32 724.237 1082.79 721.967C1082.25 719.697 1079.98 718.292 1077.71 718.829Z" fill="white"/>
<path opacity="0.3" d="M1270.81 792.455C1268.54 792.992 1267.14 795.267 1267.67 797.537C1268.21 799.806 1270.48 801.211 1272.75 800.675C1275.02 800.138 1276.43 797.863 1275.89 795.593C1275.36 793.323 1273.08 791.918 1270.81 792.455Z" fill="white"/>
<path opacity="0.3" d="M1044.11 824.374C1041.84 824.911 1040.43 827.186 1040.97 829.456C1041.5 831.726 1043.78 833.131 1046.05 832.594C1048.32 832.057 1049.72 829.782 1049.19 827.512C1048.65 825.243 1046.38 823.838 1044.11 824.374Z" fill="white"/>
<path d="M916.217 856.784C914.515 857.187 913.462 858.892 913.864 860.594C914.266 862.296 915.972 863.349 917.674 862.947C919.376 862.545 920.429 860.839 920.027 859.137C919.624 857.435 917.919 856.382 916.217 856.784Z" fill="white"/>
</g>
</g>
</g>
<defs>
<clipPath id="clip0_197_266">
<rect width="1433" height="861" fill="white" transform="translate(0 -2)"/>
</clipPath>
<clipPath id="clip1_197_266">
<rect width="1906.03" height="1597.83" fill="white" transform="translate(1794.72 2144.34) rotate(-160.322)"/>
</clipPath>
</defs>
</svg>
